<?xml version="1.0" encoding="UTF-8"?>
<svg id="Layer_1" data-name="Layer 1" xmlns="http://www.w3.org/2000/svg" xmlns:xlink="http://www.w3.org/1999/xlink" viewBox="0 0 804.34 801">
  <defs>
    <style>
      .cls-1 {
        fill: url(#linear-gradient-15);
      }

      .cls-2 {
        fill: url(#linear-gradient-13);
      }

      .cls-3 {
        fill: url(#linear-gradient-2);
      }

      .cls-4 {
        fill: url(#linear-gradient-10);
      }

      .cls-5 {
        fill: url(#linear-gradient-12);
      }

      .cls-6 {
        fill: url(#linear-gradient-4);
      }

      .cls-7 {
        fill: url(#linear-gradient-3);
      }

      .cls-8 {
        fill: url(#linear-gradient-5);
      }

      .cls-9 {
        fill: url(#linear-gradient-8);
      }

      .cls-10 {
        fill: url(#linear-gradient-14);
      }

      .cls-11 {
        fill: url(#linear-gradient-17);
      }

      .cls-12 {
        fill: url(#linear-gradient-7);
      }

      .cls-13 {
        fill: url(#linear-gradient-9);
      }

      .cls-14 {
        fill: url(#linear-gradient-11);
      }

      .cls-15 {
        fill: url(#linear-gradient-19);
      }

      .cls-16 {
        fill: url(#linear-gradient-6);
      }

      .cls-17 {
        fill: url(#linear-gradient-16);
      }

      .cls-18 {
        fill: url(#linear-gradient);
      }

      .cls-19 {
        fill: url(#linear-gradient-18);
      }
    </style>
    <linearGradient id="linear-gradient" x1="155.89" y1="342.36" x2="709.85" y2="662.19" gradientUnits="userSpaceOnUse">
      <stop offset="0" stop-color="#515c59"/>
      <stop offset="1" stop-color="#000"/>
    </linearGradient>
    <linearGradient id="linear-gradient-2" x1="197.23" y1="154.48" x2="680.5" y2="433.49" xlink:href="#linear-gradient"/>
    <linearGradient id="linear-gradient-3" x1="79.13" y1="167.68" x2="568.17" y2="450.02" xlink:href="#linear-gradient"/>
    <linearGradient id="linear-gradient-4" x1="557.84" y1="376.01" x2="747.81" y2="485.7" xlink:href="#linear-gradient"/>
    <linearGradient id="linear-gradient-5" x1="214.93" y1="139.97" x2="324.94" y2="203.48" xlink:href="#linear-gradient"/>
    <linearGradient id="linear-gradient-6" x1="119.91" y1="219.9" x2="189.76" y2="260.22" xlink:href="#linear-gradient"/>
    <linearGradient id="linear-gradient-7" x1="52.95" y1="333.53" x2="117.5" y2="370.79" xlink:href="#linear-gradient"/>
    <linearGradient id="linear-gradient-8" x1="434.37" y1="229.84" x2="562.49" y2="303.81" xlink:href="#linear-gradient"/>
    <linearGradient id="linear-gradient-9" x1="28.07" y1="443.46" x2="107.43" y2="489.28" xlink:href="#linear-gradient"/>
    <linearGradient id="linear-gradient-10" x1="397.87" y1="618.07" x2="483.52" y2="667.52" xlink:href="#linear-gradient"/>
    <linearGradient id="linear-gradient-11" x1="345.43" y1="148.95" x2="434.49" y2="200.37" xlink:href="#linear-gradient"/>
    <linearGradient id="linear-gradient-12" x1="230.64" y1="389.34" x2="291.64" y2="424.56" xlink:href="#linear-gradient"/>
    <linearGradient id="linear-gradient-13" x1="49.73" y1="547.21" x2="134.08" y2="595.91" xlink:href="#linear-gradient"/>
    <linearGradient id="linear-gradient-14" x1="225.44" y1="522.75" x2="309.5" y2="571.28" xlink:href="#linear-gradient"/>
    <linearGradient id="linear-gradient-15" x1="300.27" y1="590.42" x2="380.66" y2="636.83" xlink:href="#linear-gradient"/>
    <linearGradient id="linear-gradient-16" x1="108.4" y1="636.56" x2="183.55" y2="679.95" xlink:href="#linear-gradient"/>
    <linearGradient id="linear-gradient-17" x1="186.87" y1="704" x2="250.18" y2="740.55" xlink:href="#linear-gradient"/>
    <linearGradient id="linear-gradient-18" x1="261.15" y1="749.18" x2="323.77" y2="785.33" xlink:href="#linear-gradient"/>
    <linearGradient id="linear-gradient-19" x1="353.6" y1="762.81" x2="451.24" y2="819.18" xlink:href="#linear-gradient"/>
  </defs>
  <path class="cls-18" d="M385.67,240.03c1.97,6.73-26.68,9.58-32.27,11.14-195.21,40-219.8,300.9-62.69,405.1,182.39,124.01,458.91,6.25,504.73-206.61,1.02-2.83,7.65-31.03,8.88-27.1.19,6.61-1.06,15.86-2.06,23.03-25.51,200.75-214.21,350.37-420.98,302.98-106.44-22.43-201.31-100.92-236.31-204.3-35.56-100.82-4.61-230.67,87.24-288.18,38.66-24.9,94.61-35.84,145.74-21.18,4.31,1.57,7.06,3.35,7.69,5.05l.02.06Z"/>
  <path class="cls-3" d="M615.68,94.61c172.26,152.31,95.99,458.77-142.2,482.07-68.22,8.2-145.65-16.4-179.03-79.16-1.66-3.31-9.07-17.91-5.85-20.18,2.25-.2,4.13,2.13,5.9,3.46,4.98,4.47,13.01,13.4,20.13,19.41,43.53,36.93,102.4,41.4,157.78,26.2,76.56-21.54,150.03-79,172.4-156.36C704.37,177.2,500.88-2.7,308.14,9.88c-7.81.49-22.44,1.39-26.39-.39-.23-.14-.36-.28-.4-.44-.29-.97,3.32-2.39,9.65-3.71,3.1-.65,6.83-1.29,10.76-1.81,113.26-14.04,229.69,13.54,313.77,90.95l.16.14Z"/>
  <path class="cls-7" d="M4.55,441.97c-.14-.02-.29-.13-.44-.34-1.13-1.52-2.4-8.77-3.23-18.12-.52-5.89-.84-12.48-.84-18.91C-3.76,152.63,264.95-46.39,489.98,87.53c95.43,59.01,154.21,187.23,114.78,294.36-14.9,41.54-52.92,84.13-98.86,102.06-6.55,1.38-.23-6.25,1.32-8.32,5.09-6.47,14.55-16.85,20.58-25.45,67.52-91.77,45.14-230.28-45.33-298.74C318.26,26.28,88.04,133.61,25.77,319.56c-5.07,14.5-9.78,29.29-13.47,43.79-4.2,15.77-5.1,32-5.13,48.44-.23,6.24.24,28.19-2.6,30.19h-.02Z"/>
  <path class="cls-6" d="M683.03,578.12c-45.63,46.35-107.24,80.62-171.47,90.93-3.33.41-5.85.34-7.39-1.08-1.98-1.98-2.26-5.26-2.66-8.12-1.17-12.37-4.11-30.21-4.68-42.44.34-5.77,4.41-6.52,10.8-8.26,181.64-41.62,285.32-240.74,216.14-415.29-7.14-17.12-19.79-43.59-26.06-60.12,109.24,123.17,101.31,327.08-14.55,444.24l-.14.14Z"/>
  <path class="cls-8" d="M330.47,136.22c3.08,1.23,2.82,7.22,2.79,10.89-.01,11.01.02,28.86-.02,38.18-.01,1.58-.14,3.31-.59,4.64-1.3,3.82-6.18,3.15-9.88,3.24-32.83-1.1-63.02,10.81-93.27,22.37-7.39,2.03-8.85-2.7-13.61-9.29-2.48-3.65-5.38-7.93-8.19-12.07-2.7-3.99-5.32-7.84-7.4-10.9-3.37-5.14-7.26-9.38-1.46-14.03,8.26-7.75,31.87-16.98,46.89-22.09,11.92-4.12,22.28-6.6,34.32-8.84,13.22-2.39,26.3-3.57,40-3.43,3.36.1,7.45-.09,10.31,1.28l.1.06Z"/>
  <path class="cls-16" d="M181.22,252.42c-11.17,10.45-21.21,23.07-29.63,35.75-3.78,5.54-6.16,11.47-14.02,7.49-11.31-5.19-26.85-12.6-38.14-17.87-3.2-1.43-8.34-3.89-7.72-7.11.09-1.55.91-3.42,2.1-5.57,19.14-31.88,46.16-59.33,77-80.06,4.28-2.39,8.34-1.79,11.74,1.35,6.14,5.44,13.9,16.75,19.98,25.52,4.08,6.42,7.93,9.94,5.93,15.88-4.67,8.98-18.99,16.63-27.09,24.48l-.15.13Z"/>
  <path class="cls-12" d="M101.16,398.67c-2.05,2.82-8.15,2.86-13.16,2.21-9.03-.99-22.13-2.44-31.22-3.45-3.75-.54-8.18-.78-10.92-3.42-7.95-7.5,22.36-85.59,28.52-97.5,3.78-7.69,9.15-5.89,16.86-2.21,6.81,3.19,15.94,7.48,23.23,10.9,21.24,9.41,19.12,10.13,9.9,30.37-7.89,17.48-14.86,35.44-19.39,54.06-1.02,3.84-1.97,7.01-3.73,8.96l-.09.09Z"/>
  <path class="cls-9" d="M533.68,353.65c-.07.21-.11.31-.19.13-.19-.54-.67-2.04-1.34-4.09-2.85-8.76-8.19-25.14-11.18-34.3-.34-.94-.84-1.92-1.3-2.93-16.8-36.6-45.16-69.72-79.76-89.65,1.99-3.4,20.91-39.28,23.39-43.02,57.28,35.08,83.63,108.27,70.4,173.79l-.02.08Z"/>
  <path class="cls-13" d="M96.25,421.68c2.81,1.7,2.3,10.39,2.55,15.1.32,11.45.65,23.62.98,35.32.19,6.88.37,13.5.56,20.13.15,5.77.73,11.98-4.03,13.87-4.06,1.91-8.41,2.74-12.92,3.98-5.52,1.42-11.87,3.05-17.33,4.46-4.51,1.15-8.38,2.17-11.19,2.68-6.39,1.39-7.18-1.2-7.56-5.94-1.49-21.23-4.43-65.82-5.76-86.91-.05-2.29-.25-4.72,1.29-6.14.96-.82,2.59-1.11,5.07-1.15,3.37-.04,8.46.37,14.42.75,7.89.54,15.94,1.03,23.07,1.54,5.44.41,8.96.81,10.79,2.25l.07.06Z"/>
  <path class="cls-4" d="M481.43,670.32c-2.26,1.58-5.47,1.5-8.24,1.47-9.41-.36-18.83-.86-28.28-1.47-17.81-1.59-36.25-2.06-53.39-7.22-5.71-2.25-5.28-7.93-3.58-12.87,3.12-10.07,6.24-20.52,9.47-30.49,2.49-7.47,6.25-8.88,13.72-8.33,15.6.47,42.54.51,60.1,1.37,5.34.38,7.72,3.92,8.14,8.92,1.17,9.18,2.5,22.02,3.78,33.26.26,4.88,2.5,11.66-1.62,15.27l-.11.08Z"/>
  <path class="cls-14" d="M349.01,143.47c3.11-10.3,13.65-7.38,22.02-5.56,24.57,5.22,48.65,13.61,70.15,26.73,11.19,6.31,7.77,11.01,1.73,20.97-3.95,6.68-8.08,13.69-11.9,20.15-5.16,9.84-7.21,8.49-16.17,4.91-17.91-7.43-36.69-13.15-55.74-15.89-4.25-.61-8.66-2.03-9.86-6.53-.56-1.8-.73-3.99-.8-5.99-.28-9.51-1.07-19.62-.83-28.91.1-3.26.38-6.61,1.35-9.71l.06-.18Z"/>
  <path class="cls-5" d="M295.53,314.07c-37.1,47.77-52.36,106.5-37.67,165.97.39,1.89.71,2.65-.4,3.13-4.85,2.05-29.9,12.63-34.5,14.55-1.13.56-1.16-1.06-1.54-2.6-14.57-69.39,12.96-136.24,68.26-179.01,2.13-1.56,6.05-3.84,5.87-2.13l-.03.09Z"/>
  <path class="cls-2" d="M130.38,602.29c-.98,2.16-5.87,5.32-9.59,7.69-7.13,4.26-17.18,11.58-24.29,14.4-4.12,1.56-6.37-1.42-8.31-4.62-9.86-17.02-30.42-61.49-33.89-78.66-.22-3,1.42-4.45,5.9-5.87,2.82-.9,6.76-1.82,11.33-2.91,5.54-1.32,11.95-2.85,17.53-4.18,4.38-.96,8.42-2.23,12.71-2.4,3.9-.05,5.11,2.27,7.06,7.68,3.81,10.81,7.64,21.92,11.49,32.92,2.62,7.53,4.94,14.18,7.42,21.3,1.43,4.46,4.74,11.61,2.7,14.55l-.05.09Z"/>
  <path class="cls-10" d="M305.7,574.3c-6.27,5.85-12.32,13.79-19.53,18.86-3.27,2.38-6.64,4.22-9.22,4.34-10.41,1.66-51-66.12-48.85-75.06-.3-12.24,12.85-16.52,22.85-20.38,7.8-3.18,12.93-6.7,17.45,1.99,8.83,15.38,17.86,30.83,28.93,44.73,2.8,3.51,5.72,6.93,8.81,10.22,6.96,6.88,7.04,9.31-.29,15.17l-.15.13Z"/>
  <path class="cls-1" d="M368.54,653.46c-8.39,3.74-17.24-1.72-26.28-5.58-11.81-5.59-23.18-12.19-33.91-19.67-23.92-16.09-22.15-21.18-1.54-39.72,10.07-9.05,18.16-14.94,31.43-7.58,5.77,2.91,11.69,6.27,17.6,9.05,17.62,8.09,30.68,11.82,26.66,32.81-2.12,9.73-5.07,25.63-13.82,30.61l-.13.07Z"/>
  <path class="cls-17" d="M143.19,618.13c3.15.57,7.04,6.33,10.27,10.73,5.4,7.39,11.09,15.18,16.59,22.71,3.3,4.51,6.51,8.91,9.7,13.29,2.9,3.94,6.19,8.27,4.89,11.93-1.5,4.88-4.7,8.99-7.37,13.45-3.53,5.31-7,11.95-12.63,14.46-6.37,2.26-12.14-5.21-16.62-9.19-12.77-13.26-32.18-32.27-41.8-46.56-4.62-8.66,6.66-16.91,14.17-22.19,6.41-3.99,16.37-9.98,22.69-8.66l.11.03Z"/>
  <path class="cls-11" d="M240.51,754.7c-4.06,2.9-11.5-3.11-16.7-5.72-11.53-6.57-27.8-15.81-37.13-21.15-2.95-1.93-7.12-3.52-7.74-7.23-.03-3.84,2.34-6.78,4.61-10.71,3.26-5.07,7.73-12.33,11.12-16.87,5.22-7.54,9.26-3.33,14.45.74,11.7,10.09,30.37,23.73,41.02,34.34,4.47,5.87-1.11,13.52-3.96,19.36-1.85,3.24-3.68,5.96-5.58,7.18l-.1.07Z"/>
  <path class="cls-19" d="M329.46,770.68c0,1.38-.75,3.47-1.81,6.06-2.04,4.19-3.76,10.95-7.82,12.42-1.32.35-2.84.05-4.27-.29-10.68-2.67-34.33-10.99-46.1-15.8-6.21-2.45-14.48-6.88-12.7-14.81,1.44-5.03,5.06-10.45,8.96-14.08,4.62-4.36,9.48-.19,14.87,1.97,3.3,1.52,6.58,3.02,9.97,4.57,9.27,4.25,19.19,8.81,28.3,12.99,1.78.82,3.47,1.59,5.2,2.39,3.45,1.61,5.4,2.33,5.41,4.47v.1Z"/>
  <path class="cls-15" d="M466.6,792.57l-31.53,8.31c-11.79.45-91.51.23-92.38-10.31l3.42-14.8c39.07,11.26,79.63,18.97,120.48,16.8Z"/>
</svg>